<?xml version="1.0" encoding="UTF-8" standalone="no"?><!-- Generator: Gravit.io --><svg xmlns="http://www.w3.org/2000/svg" xmlns:xlink="http://www.w3.org/1999/xlink" style="isolation:isolate" viewBox="0 0 190 60" width="190pt" height="60pt"><defs><clipPath id="_clipPath_Vq0vWfVuku3SJFxTdP1VaOTNBauH3ZVl"><rect width="190" height="60"/></clipPath></defs><g clip-path="url(#_clipPath_Vq0vWfVuku3SJFxTdP1VaOTNBauH3ZVl)"><g><g><linearGradient id="_lgradient_0" x1="-0.01619607843137255" y1="0.5000000000000001" x2="0.9963470588235295" y2="0.5000000000000001" gradientTransform="matrix(60,0,0,60,4,0)" gradientUnits="userSpaceOnUse"><stop offset="0%" stop-opacity="1" style="stop-color:rgb(96,183,255)"/><stop offset="58.57%" stop-opacity="1" style="stop-color:rgb(1,130,252)"/><stop offset="100%" stop-opacity="1" style="stop-color:rgb(39,64,176)"/></linearGradient><circle vector-effect="non-scaling-stroke" cx="34" cy="29.999999999999993" r="30" fill="url(#_lgradient_0)"/></g><g><linearGradient id="_lgradient_1" x1="-0.5366498650624281" y1="0.5000023391678304" x2="1.1155838353961856" y2="0.5000023391678304" gradientTransform="matrix(41.463,0,0,16.697,14.604,0)" gradientUnits="userSpaceOnUse"><stop offset="0%" stop-opacity="1" style="stop-color:rgb(96,183,255)"/><stop offset="58.57%" stop-opacity="1" style="stop-color:rgb(1,130,252)"/><stop offset="100%" stop-opacity="1" style="stop-color:rgb(39,64,176)"/></linearGradient><path d=" M 37.19 14.339 C 38.539 12.99 40.324 12.162 42.226 12.009 C 47.45 11.588 52.175 10.777 56.067 9.679 C 50.585 3.729 42.729 0 34 0 C 27.739 0 21.926 1.919 17.117 5.2 C 14.133 7.236 13.741 11.487 16.295 14.042 C 17.567 15.313 19.628 15.313 20.899 14.042 C 22.165 12.776 24.214 12.77 25.488 14.027 C 25.604 14.14 25.722 14.257 25.841 14.375 C 28.991 17.485 34.06 17.469 37.19 14.339 L 37.19 14.339 Z " fill="url(#_lgradient_1)"/><linearGradient id="_lgradient_2" x1="-0.4083792760018834" y1="0.5000053347637758" x2="0.812653923566401" y2="0.5000053347637758" gradientTransform="matrix(28.232,0,0,9.461,34,15.038)" gradientUnits="userSpaceOnUse"><stop offset="0%" stop-opacity="1" style="stop-color:rgb(96,183,255)"/><stop offset="58.57%" stop-opacity="1" style="stop-color:rgb(1,130,252)"/><stop offset="100%" stop-opacity="1" style="stop-color:rgb(39,64,176)"/></linearGradient><path d=" M 34 21.852 C 34 23.342 35.23 24.536 36.719 24.498 C 44.792 24.298 52.324 23.204 58.166 21.368 C 59.496 20.95 60.89 20.443 62.232 19.834 C 61.63 18.162 60.884 16.558 60.008 15.038 C 59.066 15.46 57.934 15.892 56.579 16.318 C 51.191 18.011 44.166 19.02 36.577 19.206 C 35.143 19.242 34 20.418 34 21.852 L 34 21.852 Z " fill="url(#_lgradient_2)"/></g><linearGradient id="_lgradient_3" x1="-0.21929019607843142" y1="0.4999999999999999" x2="0.9189823529411765" y2="0.4999999999999999" gradientTransform="matrix(60,0,0,60,4,0)" gradientUnits="userSpaceOnUse"><stop offset="0%" stop-opacity="1" style="stop-color:rgb(96,183,255)"/><stop offset="58.57%" stop-opacity="1" style="stop-color:rgb(1,130,252)"/><stop offset="100%" stop-opacity="1" style="stop-color:rgb(39,64,176)"/></linearGradient><path d=" M 34 0 C 33.208 0 32.423 0.031 31.646 0.092 C 34.934 0.347 38.074 1.132 40.979 2.362 C 50.985 6.599 48.186 21.492 37.325 21.833 C 36.232 21.868 35.122 21.885 34 21.885 C 22.705 21.885 12.735 20.104 6.774 17.388 C 4.995 21.222 4 25.495 4 30 L 4 30.054 C 4.005 33.107 5.161 36.046 7.2 38.317 L 7.981 39.188 C 9.276 40.63 11.337 41.038 13.122 40.285 C 14.634 39.648 16.371 39.877 17.664 40.884 C 20.125 42.798 23.318 43.496 26.314 42.633 L 29.262 41.784 C 31.008 41.281 32.881 41.778 34.17 43.058 C 35.102 43.984 36.363 44.504 37.677 44.504 L 39.939 44.504 C 42.253 44.504 44.454 43.564 46.099 41.935 C 47.347 40.7 48.941 39.872 50.671 39.562 C 51.243 39.46 51.799 39.356 52.212 39.27 C 54.95 38.7 57.122 41.564 55.812 44.035 C 55.796 44.066 55.779 44.098 55.762 44.13 C 55.316 44.963 54.538 45.568 53.621 45.793 C 49.993 46.682 45.821 47.304 41.352 47.63 C 39.52 47.763 37.678 47.602 35.893 47.165 C 34.17 46.744 32.394 46.583 30.624 46.689 L 24.103 47.078 C 22.848 47.152 21.6 46.846 20.523 46.199 C 20.08 45.933 19.591 45.639 19.109 45.35 C 17.446 44.351 15.412 44.183 13.608 44.897 C 12.913 45.172 12.145 45.2 11.432 44.976 L 11.421 44.972 C 9.6 44.4 8.182 43.817 7.085 43.261 C 8.446 46.017 10.215 48.535 12.318 50.732 C 18.442 52.322 26.025 53.187 34 53.187 C 34.056 53.187 34.111 53.187 34.167 53.187 C 38.052 53.181 38.561 58.805 34.74 59.506 C 33.725 59.692 32.693 59.827 31.646 59.908 C 32.423 59.969 33.208 60 34 60 C 50.569 60 64 46.569 64 30 C 64 13.431 50.569 0 34 0 L 34 0 Z " fill="url(#_lgradient_3)"/><linearGradient id="_lgradient_4" x1="-0.6839849224375393" y1="0.5" x2="0.9043976223843809" y2="0.5" gradientTransform="matrix(48.689,0,0,12.469,9.656,47.531)" gradientUnits="userSpaceOnUse"><stop offset="0%" stop-opacity="1" style="stop-color:rgb(96,183,255)"/><stop offset="58.57%" stop-opacity="1" style="stop-color:rgb(1,130,252)"/><stop offset="100%" stop-opacity="1" style="stop-color:rgb(39,64,176)"/></linearGradient><path d=" M 58.345 47.531 C 52.304 49.597 43.634 50.893 34 50.893 C 24.367 50.893 15.697 49.598 9.656 47.531 C 10.469 48.66 11.358 49.73 12.318 50.733 C 18.442 52.322 26.025 53.187 34 53.187 C 34.055 53.187 34.111 53.187 34.166 53.187 C 38.035 53.181 38.583 58.796 34.779 59.499 C 33.752 59.689 32.707 59.826 31.646 59.908 C 32.423 59.969 33.208 60 34 60 C 44.023 60 52.897 55.083 58.345 47.531 L 58.345 47.531 Z " fill="url(#_lgradient_4)"/><linearGradient id="_lgradient_5" x1="-0.2144934076283158" y1="0.4999999999999998" x2="1.171431094019777" y2="0.4999999999999998" gradientTransform="matrix(59.962,0,0,16.054,4.038,22.776)" gradientUnits="userSpaceOnUse"><stop offset="0%" stop-opacity="1" style="stop-color:rgb(96,183,255)"/><stop offset="58.57%" stop-opacity="1" style="stop-color:rgb(1,130,252)"/><stop offset="100%" stop-opacity="1" style="stop-color:rgb(39,64,176)"/></linearGradient><path d=" M 64 30 C 64 31.466 63.893 32.906 63.689 34.315 C 62.736 34.689 61.78 35.022 60.852 35.315 C 53.638 37.582 44.101 38.831 34 38.831 C 31.922 38.831 29.869 38.778 27.856 38.673 C 26.485 38.602 25.412 37.465 25.412 36.092 C 25.412 34.772 24.418 33.662 23.106 33.522 C 18.175 32.999 13.645 32.118 9.834 30.92 C 7.919 30.318 5.869 29.531 4.038 28.524 C 4.134 26.552 4.419 24.629 4.878 22.776 C 5.464 23.25 7.273 24.145 8.49 24.724 C 9.264 25.093 9.936 25.645 10.449 26.333 L 10.656 26.61 C 11.981 28.386 14.275 29.145 16.398 28.51 C 17.788 28.094 19.289 28.309 20.506 29.098 L 21.033 29.439 C 22.297 30.259 23.939 30.203 25.144 29.299 C 25.831 28.784 26.678 28.534 27.534 28.588 C 29.636 28.721 31.8 28.789 34 28.789 C 42.567 28.789 50.586 27.753 56.579 25.869 C 60.005 24.793 62.004 23.68 63.122 22.776 C 63.58 24.629 63.868 26.551 63.964 28.522 C 63.987 29.012 64 29.505 64 30 L 64 30 Z " fill="url(#_lgradient_5)"/><g><linearGradient id="_lgradient_6" x1="-1.7745977199585445" y1="0.4999942376763009" x2="1.283903343697158" y2="0.4999942376763009" gradientTransform="matrix(21.568,0,0,6.401,29.961,30.097)" gradientUnits="userSpaceOnUse"><stop offset="0%" stop-opacity="1" style="stop-color:rgb(96,183,255)"/><stop offset="58.57%" stop-opacity="1" style="stop-color:rgb(1,130,252)"/><stop offset="100%" stop-opacity="1" style="stop-color:rgb(39,64,176)"/></linearGradient><path d=" M 48.472 30.13 C 44.055 30.832 39.126 31.204 34 31.204 C 33.544 31.204 33.089 31.201 32.637 31.195 C 31.164 31.176 29.961 32.366 29.961 33.839 L 29.961 33.843 C 29.961 35.292 31.128 36.47 32.577 36.488 C 33.05 36.495 33.524 36.498 34 36.498 C 39.386 36.498 44.595 36.102 49.296 35.356 C 50.582 35.152 51.529 34.045 51.529 32.742 C 51.529 31.117 50.078 29.875 48.472 30.13 L 48.472 30.13 Z " fill="url(#_lgradient_6)"/><linearGradient id="_lgradient_7" x1="-9.08855184233077" y1="0.49998977773810704" x2="0.5209597257926308" y2="0.49998977773810704" gradientTransform="matrix(6.865,0,0,5.801,54.076,27.854)" gradientUnits="userSpaceOnUse"><stop offset="0%" stop-opacity="1" style="stop-color:rgb(96,183,255)"/><stop offset="58.57%" stop-opacity="1" style="stop-color:rgb(1,130,252)"/><stop offset="100%" stop-opacity="1" style="stop-color:rgb(39,64,176)"/></linearGradient><path d=" M 57.453 27.996 C 57.172 28.092 56.881 28.187 56.579 28.282 C 56.377 28.346 56.173 28.408 55.967 28.469 C 54.846 28.803 54.076 29.834 54.076 31.004 L 54.076 31.007 C 54.076 32.776 55.78 34.048 57.475 33.544 C 57.708 33.475 57.938 33.404 58.166 33.333 C 58.494 33.23 58.827 33.121 59.161 33.007 C 60.228 32.643 60.941 31.634 60.941 30.507 L 60.941 30.504 C 60.941 28.696 59.165 27.414 57.453 27.996 Z " fill="url(#_lgradient_7)"/></g><linearGradient id="_lgradient_8" x1="-2.492053040847453" y1="0.49999280698095383" x2="0.8560087679087869" y2="0.49999280698095383" gradientTransform="matrix(28.231,0,0,9.461,34.001,15.038)" gradientUnits="userSpaceOnUse"><stop offset="0%" stop-opacity="1" style="stop-color:rgb(96,183,255)"/><stop offset="58.57%" stop-opacity="1" style="stop-color:rgb(1,130,252)"/><stop offset="100%" stop-opacity="1" style="stop-color:rgb(39,64,176)"/></linearGradient><path d=" M 56.579 16.318 C 53.11 17.408 48.963 18.214 44.425 18.7 C 42.753 20.511 40.352 21.738 37.324 21.833 C 36.231 21.868 35.122 21.885 34.001 21.885 C 34.019 23.36 35.241 24.535 36.719 24.499 C 44.792 24.298 52.324 23.204 58.166 21.368 C 59.496 20.95 60.891 20.443 62.232 19.834 C 61.63 18.162 60.884 16.558 60.008 15.038 C 59.066 15.46 57.934 15.892 56.579 16.318 L 56.579 16.318 Z " fill="url(#_lgradient_8)"/><linearGradient id="_lgradient_9" x1="-1.1611678550780495" y1="0.49999487458099706" x2="0.9298178839853537" y2="0.49999487458099706" gradientTransform="matrix(24.419,0,0,11.477,31.648,0)" gradientUnits="userSpaceOnUse"><stop offset="0%" stop-opacity="1" style="stop-color:rgb(96,183,255)"/><stop offset="58.57%" stop-opacity="1" style="stop-color:rgb(1,130,252)"/><stop offset="100%" stop-opacity="1" style="stop-color:rgb(39,64,176)"/></linearGradient><path d=" M 31.648 0.092 C 34.935 0.347 38.073 1.132 40.977 2.362 C 45.182 4.142 47.125 7.804 47.16 11.477 C 50.439 11.029 53.443 10.419 56.067 9.679 C 50.585 3.729 42.729 0 34 0 C 33.209 0 32.424 0.032 31.648 0.092 Z " fill="url(#_lgradient_9)"/></g><text transform="matrix(1,0,0,1,68.5,37)" style="font-family:'Orbitron';font-weight:700;font-size:28px;font-style:normal;fill:#000000;stroke:none;">Galaxy</text></g></svg>